<mxfile host="app.diagrams.net" modified="2024-01-10T10:49:12.851Z" agent="Mozilla/5.0 (X11; Linux x86_64; rv:120.0) Gecko/20100101 Firefox/120.0" version="22.1.18" etag="RUnSXDc3YXIjwWobX3Ac" type="github">
  <diagram name="Page-1" id="P6eSRARk4GymKliJ5_BG">
    <mxGraphModel>
      <root>
        <mxCell id="0" />
        <mxCell id="1" parent="0" />
      </root>
    </mxGraphModel>
  </diagram>
</mxfile>
